<?xml version="1.0" standalone="no"?><!DOCTYPE svg PUBLIC "-//W3C//DTD SVG 1.1//EN" "http://www.w3.org/Graphics/SVG/1.1/DTD/svg11.dtd"><svg t="1679972293252" class="icon" viewBox="0 0 1024 1024" version="1.1" xmlns="http://www.w3.org/2000/svg" p-id="6221" xmlns:xlink="http://www.w3.org/1999/xlink" width="200" height="200"><path d="M849.408 319.488c-52.224 0-95.232 42.496-95.232 94.208 0 22.016 7.68 41.984 24.576 62.976 7.168 9.216 13.312 16.384 18.432 23.04 15.36 18.432 25.6 30.72 40.448 61.44 1.024 2.56 3.072 4.096 5.12 5.632 2.048 1.024 4.096 1.536 6.144 1.536 2.048 0 3.584-0.512 5.632-1.024v-0.512c2.048-1.024 4.096-2.56 5.12-5.12 19.968-35.328 29.184-47.104 47.104-69.632l11.776-15.36c16.896-20.992 24.576-40.96 24.576-62.976 1.536-52.224-40.96-94.208-93.696-94.208zM900.096 460.8l-12.288 15.36c-14.336 18.432-24.064 30.72-37.888 53.248-11.264-19.456-20.992-31.232-32.768-46.08-5.12-6.656-11.264-13.824-17.92-22.528-13.312-16.384-18.944-30.72-18.944-47.104 0-37.888 31.232-68.608 69.632-68.608 38.4 0 69.632 30.72 69.632 68.608-0.512 16.384-6.144 30.72-19.456 47.104zM444.416 236.544c-6.144 3.072-8.704 11.264-5.12 17.408s11.264 8.704 17.408 5.12c38.912-20.48 85.504-18.944 122.88 4.096 2.048 1.536 4.608 2.048 6.656 2.048 4.096 0 8.704-2.048 10.752-6.144 3.584-6.144 2.048-13.824-4.096-17.408-45.056-28.16-101.888-30.208-148.48-5.12zM381.952 167.936c-6.144 4.096-7.68 11.776-4.096 17.92 4.096 5.632 11.776 7.68 17.92 3.584 73.216-47.104 170.496-46.08 242.176 3.584a13.312 13.312 0 0 0 17.92-3.584c4.096-5.632 2.56-13.824-3.072-17.92a247.6032 247.6032 0 0 0-270.848-3.584z" fill="#10A957" p-id="6222"></path><path d="M333.312 91.648c-6.144 3.584-7.68 11.776-3.584 17.408 4.096 6.144 11.776 7.68 17.92 3.584a309.9136 309.9136 0 0 1 342.016 5.12 13.312 13.312 0 0 0 17.92-3.584c4.096-5.632 2.56-13.824-3.072-17.92C594.432 20.992 445.44 18.944 333.312 91.648z" fill="#10A957" p-id="6223"></path><path d="M223.744 867.328H51.2c-7.168 0-12.8 5.632-12.8 12.8s5.632 12.8 12.8 12.8h172.544c7.168 0 12.8-5.632 12.8-12.8s-6.144-12.8-12.8-12.8zM223.744 960H51.2c-7.168 0-12.8 5.632-12.8 12.8s5.632 12.8 12.8 12.8h172.544c7.168 0 12.8-5.632 12.8-12.8s-6.144-12.8-12.8-12.8z" fill="#02160A" p-id="6224"></path><path d="M472.576 463.872H374.272V345.088h288.256v361.984c0 7.168 5.632 12.8 12.8 12.8s12.8-5.632 12.8-12.8V341.504c0-12.288-10.24-22.016-22.528-22.016H371.2c-12.288 0-22.528 9.728-22.528 22.016v122.368H206.848c-12.288 0-22.528 10.24-22.528 22.528v279.552H51.2c-7.168 0-12.8 5.632-12.8 12.8s5.632 12.8 12.8 12.8h224.256V972.8c0 7.168 5.632 12.8 12.8 12.8h193.536c7.168 0 12.8-5.632 12.8-12.8V486.4c0-12.288-9.728-22.528-22.016-22.528z m-262.656 302.08v-276.48h259.072v470.016H397.824v-39.424c0-7.168-5.632-12.8-12.8-12.8s-12.8 5.632-12.8 12.8v39.424H301.056v-172.032c0-12.288-9.728-22.016-22.016-22.016H209.92z" fill="#02160A" p-id="6225"></path><path d="M548.864 787.968c0 7.168 5.632 12.8 12.8 12.8H972.8c7.168 0 12.8-5.632 12.8-12.8s-5.632-12.8-12.8-12.8h-411.136c-7.168 0-12.8 5.632-12.8 12.8zM726.528 867.328h-164.864c-7.168 0-12.8 5.632-12.8 12.8s5.632 12.8 12.8 12.8h164.864c7.168 0 12.8-5.632 12.8-12.8s-5.632-12.8-12.8-12.8zM972.8 867.328h-164.864c-7.168 0-12.8 5.632-12.8 12.8s5.632 12.8 12.8 12.8H972.8c7.168 0 12.8-5.632 12.8-12.8s-5.632-12.8-12.8-12.8zM726.528 960h-164.864c-7.168 0-12.8 5.632-12.8 12.8s5.632 12.8 12.8 12.8h164.864c7.168 0 12.8-5.632 12.8-12.8s-5.632-12.8-12.8-12.8zM972.8 960h-164.864c-7.168 0-12.8 5.632-12.8 12.8s5.632 12.8 12.8 12.8H972.8c7.168 0 12.8-5.632 12.8-12.8s-5.632-12.8-12.8-12.8zM580.096 465.92c7.168 0 12.8-5.632 12.8-12.8V400.896c0-7.168-5.632-12.8-12.8-12.8s-12.8 5.632-12.8 12.8v52.224c0 7.168 5.632 12.8 12.8 12.8zM567.296 580.096c0 7.168 5.632 12.8 12.8 12.8s12.8-5.632 12.8-12.8v-52.224c0-7.168-5.632-12.8-12.8-12.8s-12.8 5.632-12.8 12.8v52.224zM567.296 707.072c0 7.168 5.632 12.8 12.8 12.8s12.8-5.632 12.8-12.8v-52.224c0-7.168-5.632-12.8-12.8-12.8s-12.8 5.632-12.8 12.8v52.224zM385.024 611.84c7.168 0 12.8-5.632 12.8-12.8v-52.224c0-7.168-5.632-12.8-12.8-12.8s-12.8 5.632-12.8 12.8v52.224c0 7.168 5.632 12.8 12.8 12.8zM288.256 611.84c7.168 0 12.8-5.632 12.8-12.8v-52.224c0-7.168-5.632-12.8-12.8-12.8s-12.8 5.632-12.8 12.8v52.224c0 7.168 5.632 12.8 12.8 12.8zM288.256 736.256c7.168 0 12.8-5.632 12.8-12.8v-52.224c0-7.168-5.632-12.8-12.8-12.8s-12.8 5.632-12.8 12.8v52.224c0 7.168 5.632 12.8 12.8 12.8zM385.024 736.256c7.168 0 12.8-5.632 12.8-12.8v-52.224c0-7.168-5.632-12.8-12.8-12.8s-12.8 5.632-12.8 12.8v52.224c0 7.168 5.632 12.8 12.8 12.8zM385.024 860.672c7.168 0 12.8-5.632 12.8-12.8v-52.224c0-7.168-5.632-12.8-12.8-12.8s-12.8 5.632-12.8 12.8v52.224c0 7.168 5.632 12.8 12.8 12.8zM849.408 731.136c7.168 0 12.8-5.632 12.8-12.8v-96.768c0-7.168-5.632-12.8-12.8-12.8s-12.8 5.632-12.8 12.8v96.768c0 7.168 6.144 12.8 12.8 12.8z" fill="#02160A" p-id="6226"></path></svg>