<?xml version="1.0" standalone="no"?><!DOCTYPE svg PUBLIC "-//W3C//DTD SVG 1.1//EN" "http://www.w3.org/Graphics/SVG/1.1/DTD/svg11.dtd"><svg t="1679972412782" class="icon" viewBox="0 0 1146 1024" version="1.1" xmlns="http://www.w3.org/2000/svg" p-id="14524" xmlns:xlink="http://www.w3.org/1999/xlink" width="223.828125" height="200"><path d="M133.12 954.368V239.616a28.672 28.672 0 0 1 18.14528-26.66496l399.36-157.696A28.672 28.672 0 0 1 589.824 81.92v309.90336l339.06688 168.5504a28.672 28.672 0 0 1 15.93344 25.68192V954.368H1093.632a28.672 28.672 0 0 1 0 57.344H28.672a28.672 28.672 0 0 1 0-57.344h104.448z m57.344 0H532.48V124.06784L190.464 259.11296V954.368z m399.36 0h297.65632v-350.57664L589.824 455.8848V954.368zM1077.94432 310.10816a28.672 28.672 0 0 1-57.344 0c0-132.87424-106.45504-240.47616-237.568-240.47616a28.672 28.672 0 1 1 0-57.344c162.93888 0 294.912 133.40672 294.912 297.82016z m-133.12 44.89216a28.672 28.672 0 0 1-57.344 0c0-83.3536-66.72384-150.77376-148.84864-150.77376a28.672 28.672 0 0 1 0-57.344c113.95072 0 206.19264 93.22496 206.19264 208.0768z m-472.43264 285.32736a28.672 28.672 0 0 1 0 57.344H250.55232a28.672 28.672 0 1 1 0-57.344h221.83936z m0-224.29696a28.672 28.672 0 0 1 0 57.344H250.55232a28.672 28.672 0 0 1 0-57.344h221.83936z" fill="#000000" p-id="14525"></path></svg>