<?xml version="1.0" standalone="no"?><!DOCTYPE svg PUBLIC "-//W3C//DTD SVG 1.1//EN" "http://www.w3.org/Graphics/SVG/1.1/DTD/svg11.dtd"><svg t="1679972060883" class="icon" viewBox="0 0 1024 1024" version="1.1" xmlns="http://www.w3.org/2000/svg" p-id="4293" xmlns:xlink="http://www.w3.org/1999/xlink" width="200" height="200"><path d="M512 512m-512 0a512 512 0 1 0 1024 0 512 512 0 1 0-1024 0Z" fill="#10A5E5" p-id="4294"></path><path d="M672 576v16h-16V352h32V576h-16z m-176 96V240h32v432h-32z m-160 16V416h32v272h-32z" fill="#9FDBF5" p-id="4295"></path><path d="M802.752 585.088a224.576 224.576 0 0 1-54.912 59.392 568.704 568.704 0 0 1-186.176 102.4 795.712 795.712 0 0 1-224 37.056h-16.256a233.792 233.792 0 0 1-80.256-15.36 75.52 75.52 0 0 1-45.888-43.84 70.4 70.4 0 0 1 6.4-55.232 188.544 188.544 0 0 1 43.2-53.12A33.984 33.984 0 0 1 256 608V464a25.6 25.6 0 0 1 3.584-17.408S351.168 384.768 352 384l64 48V288c0-4.736-1.216-1.152 2.688-3.968L496 208a32 32 0 0 1 32 0l68.864 60.032A39.68 39.68 0 0 1 608 288v80s63.36-48.384 64-48L768 400V480a67.328 67.328 0 0 1 48 48 85.568 85.568 0 0 1-13.248 57.088z m-18.176-52.672A29.056 29.056 0 0 0 768 512v34.368a37.824 37.824 0 0 1-16 29.632l-16 8.64v-7.744c-1.472 1.216-2.624 2.368-4.16 3.584a660.096 660.096 0 0 1-75.84 53.12v-34.688a657.664 657.664 0 0 0 57.088-41.152 275.648 275.648 0 0 0 22.912-20.608V496h-1.152V398.336L672 352l-64 48v256a145.472 145.472 0 0 1-32 23.936V672a555.52 555.52 0 0 1-30.272 10.816c-16 5.248-32.704 9.856-49.728 14.016v-30.144c13.76-3.52 27.392-7.296 40.384-11.52A617.6 617.6 0 0 0 576 640.32V288l-48-48h-32L448 288V704c0 7.552-9.408 9.152-16.96 10.048l-15.04 0.96v-2.688a726.336 726.336 0 0 1-80 7.296v-29.376a709.12 709.12 0 0 0 80-7.616V592h-1.088l1.024-128-64-45.568-64 45.568v224a21.568 21.568 0 0 1-19.2 17.28 14.912 14.912 0 0 1-15.04-14.784v-41.408a73.728 73.728 0 0 0-29.696 66.304 48 48 0 0 0 29.248 26.048 204.8 204.8 0 0 0 69.504 12.8h15.104a762.752 762.752 0 0 0 214.592-35.456 536.832 536.832 0 0 0 176.704-97.408 200.768 200.768 0 0 0 47.744-51.2 47.68 47.68 0 0 0 7.68-37.76zM608 627.2c0.576-1.92 0 1.536 0 0zM768 400c0-4.8 0.96-0.32 0 0z" fill="#FFFFFF" p-id="4296"></path></svg>