<svg t="1686230906875" class="icon" viewBox="0 0 1024 1024" version="1.1" xmlns="http://www.w3.org/2000/svg" p-id="1871" width="200" height="200"><path d="M915.01 835.4h-34.15V233.38c0-74.08-60.26-134.34-134.34-134.34H479.49c-74.08 0-134.34 60.26-134.34 134.34v229.99h-54.73c-74.08 0-134.34 60.26-134.34 134.34V835.4h-47.1c-24.73 0-44.78 20.05-44.78 44.78s20.05 44.78 44.78 44.78H915c24.73 0 44.78-20.05 44.78-44.78 0.01-24.73-20.04-44.78-44.77-44.78zM245.64 597.71c0-24.69 20.09-44.78 44.78-44.78h54.73v96.47h-99.51v-51.69z m0 141.24h99.51v96.44h-99.51v-96.44z m189.07 96.45V233.38c0-24.69 20.09-44.78 44.78-44.78h267.03c24.69 0 44.78 20.09 44.78 44.78V835.4H434.71z" fill="#333333" p-id="1872"></path><path d="M561.14 275.94h-46.78c-12.23 0-22.14 9.91-22.14 22.14v46.78c0 12.23 9.91 22.14 22.14 22.14h46.78c12.23 0 22.14-9.91 22.14-22.14v-46.78c0-12.23-9.91-22.14-22.14-22.14zM707.5 275.94h-46.78c-12.23 0-22.14 9.91-22.14 22.14v46.78c0 12.23 9.91 22.14 22.14 22.14h46.78c12.23 0 22.14-9.91 22.14-22.14v-46.78c0-12.23-9.92-22.14-22.14-22.14zM561.14 457.54h-46.78c-12.23 0-22.14 9.91-22.14 22.14v46.78c0 12.23 9.91 22.14 22.14 22.14h46.78c12.23 0 22.14-9.91 22.14-22.14v-46.78c0-12.23-9.91-22.14-22.14-22.14zM707.5 457.54h-46.78c-12.23 0-22.14 9.91-22.14 22.14v46.78c0 12.23 9.91 22.14 22.14 22.14h46.78c12.23 0 22.14-9.91 22.14-22.14v-46.78c0-12.23-9.92-22.14-22.14-22.14zM707.5 638.7h-46.78c-12.23 0-22.14 9.91-22.14 22.14v46.78c0 12.23 9.91 22.14 22.14 22.14h46.78c12.23 0 22.14-9.91 22.14-22.14v-46.78c0-12.23-9.92-22.14-22.14-22.14z" fill="#333333" p-id="1873"></path></svg>