{
    "asset" : {
        "generator" : "Khronos glTF Blender I/O v3.3.36",
        "version" : "2.0"
    },
    "scene" : 0,
    "scenes" : [
        {
            "name" : "Scene",
            "nodes" : [
                0
            ]
        }
    ],
    "nodes" : [
        {
            "mesh" : 0,
            "name" : "\u6b66\u6c49\uff08\u8f6c\u79fb\uff09.001",
            "scale" : [
                1,
                4,
                1
            ],
            "translation" : [
                2741.218017578125,
                2.6237599849700928,
                5174.830078125
            ]
        }
    ],
    "materials" : [
        {
            "alphaMode" : "BLEND",
            "name" : "budiling",
            "pbrMetallicRoughness" : {
                "metallicFactor" : 0,
                "roughnessFactor" : 0.5
            }
        }
    ],
    "meshes" : [
        {
            "name" : "\u6b66\u6c49\uff08\u8f6c\u79fb\uff09.002",
            "primitives" : [
                {
                    "attributes" : {
                        "POSITION" : 0,
                        "NORMAL" : 1,
                        "TEXCOORD_0" : 2
                    },
                    "indices" : 3,
                    "material" : 0
                }
            ]
        }
    ],
    "accessors" : [
        {
            "bufferView" : 0,
            "componentType" : 5126,
            "count" : 10829,
            "max" : [
                30281.890625,
                29.376243591308594,
                28621.3046875
            ],
            "min" : [
                -35756.16015625,
                -2.623755931854248,
                -39114.65234375
            ],
            "type" : "VEC3"
        },
        {
            "bufferView" : 1,
            "componentType" : 5126,
            "count" : 10829,
            "type" : "VEC3"
        },
        {
            "bufferView" : 2,
            "componentType" : 5126,
            "count" : 10829,
            "type" : "VEC2"
        },
        {
            "bufferView" : 3,
            "componentType" : 5123,
            "count" : 18315,
            "type" : "SCALAR"
        }
    ],
    "bufferViews" : [
        {
            "buffer" : 0,
            "byteLength" : 129948,
            "byteOffset" : 0,
            "target" : 34962
        },
        {
            "buffer" : 0,
            "byteLength" : 129948,
            "byteOffset" : 129948,
            "target" : 34962
        },
        {
            "buffer" : 0,
            "byteLength" : 86632,
            "byteOffset" : 259896,
            "target" : 34962
        },
        {
            "buffer" : 0,
            "byteLength" : 36630,
            "byteOffset" : 346528,
            "target" : 34963
        }
    ],
    "buffers" : [
        {
            "byteLength" : 383160,
            "uri" : "data:application/octet-stream;base64,"
        }
    ]
}
